<?xml version="1.0" encoding="utf-8"?>
<!-- Generator: Adobe Illustrator 23.0.3, SVG Export Plug-In . SVG Version: 6.00 Build 0)  -->
<svg version="1.1" id="Calque_1" xmlns="http://www.w3.org/2000/svg" xmlns:xlink="http://www.w3.org/1999/xlink" x="0px" y="0px"
	 viewBox="0 0 226 125" style="enable-background:new 0 0 226 125;" xml:space="preserve">
<style type="text/css">
	.st0{fill:#2F334C;}
	.st1{fill:#E9ECF0;}
	.st2{fill:#CFD4DC;}
	.st3{fill:#5C9AEC;}
	.st4{fill:#3580D1;}
	.st5{fill:#80879E;}
	.st6{fill:#EC5475;}
	.st7{fill:#F7C093;}
	.st8{fill:#D0AB80;}
	.st9{fill:#9DD279;}
	.st10{fill:#7DB04F;}
	.st11{fill:#656D87;}
	.st12{fill:#D0545A;}
	.st13{fill:#FD6464;}
	.st14{fill:#BC4B50;}
	.st15{fill:#FFFFFF;}
</style>
<g>
	<g>
		<path class="st0" d="M43.4,103.1c1.4,0,2.7,0.3,2.7,2.7v0.9c0,1.4-0.5,2-1.2,2.3c0.8,0.3,1.3,0.9,1.3,2.3v1.3
			c0,2.3-1.3,2.7-2.8,2.7h-2.5v-12.1H43.4z M43.2,108.2c1.1,0,1.5-0.3,1.5-1.4v-1c0-1.1-0.4-1.4-1.5-1.4h-0.9v3.9H43.2z M42.3,109.5
			v4.4h0.9c1.1,0,1.5-0.4,1.5-1.5v-1.5c0-1.1-0.4-1.4-1.5-1.4H42.3z"/>
		<path class="st0" d="M51.6,103.1H53v10.8h2.7v1.3h-4.1V103.1z"/>
		<path class="st0" d="M60.3,105.8c0-2.1,1-2.9,2.7-2.9c1.7,0,2.7,0.9,2.7,2.9v6.6c0,2.1-1,2.9-2.7,2.9c-1.7,0-2.7-0.9-2.7-2.9
			V105.8z M63,114c0.9,0,1.2-0.5,1.2-1.4v-7c0-1-0.4-1.4-1.2-1.4c-0.9,0-1.2,0.5-1.2,1.4v7C61.8,113.6,62.2,114,63,114z"/>
		<path class="st0" d="M74.9,105.6c0-1-0.4-1.4-1.2-1.4c-0.9,0-1.2,0.5-1.2,1.4v7c0,1,0.4,1.4,1.2,1.4c0.9,0,1.2-0.5,1.2-1.4v-3
			h-1.2v-1.2h2.7v6.7h-0.8l-0.1-1c-0.4,0.8-1.1,1.2-2.1,1.2c-1.4,0-2.4-0.8-2.4-2.9v-6.6c0-2.1,1-2.9,2.7-2.9c1.7,0,2.7,0.9,2.7,2.9
			v1.3h-1.4V105.6z"/>
		<path class="st0" d="M88.9,103.1h2.4c1.4,0,2.9,0.5,2.9,2.8v6.4c0,2.3-1.4,2.8-2.9,2.8h-2.4V103.1z M90.4,104.4v9.5h0.8
			c1.1,0,1.5-0.4,1.5-1.5v-6.5c0-1.1-0.4-1.5-1.5-1.5H90.4z"/>
		<path class="st0" d="M101.3,113.9h2.9v1.3h-4.3v-12.1h4.2v1.3h-2.8v3.9h2.5v1.3h-2.5V113.9z"/>
		<path class="st0" d="M111.3,109.4c0.2,1,0.3,2.2,0.5,3.7c0.2-1.5,0.3-2.7,0.5-3.7l1.1-6.3h1.3l-2.1,12.1h-1.8l-2.1-12.1h1.5
			L111.3,109.4z"/>
		<path class="st0" d="M121.2,113.9h2.9v1.3h-4.3v-12.1h4.2v1.3h-2.8v3.9h2.5v1.3h-2.5V113.9z"/>
		<path class="st0" d="M129.3,103.1h1.5v10.8h2.7v1.3h-4.1V103.1z"/>
		<path class="st0" d="M138.1,105.8c0-2.1,1-2.9,2.7-2.9c1.7,0,2.7,0.9,2.7,2.9v6.6c0,2.1-1,2.9-2.7,2.9c-1.7,0-2.7-0.9-2.7-2.9
			V105.8z M140.8,114c0.9,0,1.2-0.5,1.2-1.4v-7c0-1-0.4-1.4-1.2-1.4c-0.9,0-1.2,0.5-1.2,1.4v7C139.6,113.6,139.9,114,140.8,114z"/>
		<path class="st0" d="M150.4,115.2H149v-12.1h2.4c1.4,0,2.9,0.5,2.9,2.8v2.1c0,2.3-1.5,2.8-2.9,2.8h-0.9V115.2z M150.4,104.4v5.2
			h0.8c1.1,0,1.5-0.4,1.5-1.5v-2.2c0-1.1-0.4-1.5-1.5-1.5H150.4z"/>
		<path class="st0" d="M160.8,113.9h2.9v1.3h-4.3v-12.1h4.2v1.3h-2.8v3.9h2.5v1.3h-2.5V113.9z"/>
		<path class="st0" d="M170.4,109.8v5.4H169v-12.1h2.5c1.4,0,2.8,0.3,2.8,2.7v1.1c0,1.4-0.6,2-1.3,2.3c0.8,0.3,1.3,0.9,1.3,2.4v0.5
			c0,2.2,0.2,2.6,0.4,3.1h-1.6c-0.1-0.4-0.3-1-0.3-2.4v-1c0-1.5-0.4-1.9-1.8-1.9H170.4z M171.4,108.5c1.1,0,1.5-0.3,1.5-1.4v-1.3
			c0-1.1-0.4-1.4-1.5-1.4h-0.9v4.2H171.4z"/>
	</g>
	<g>
		<g>
			<g>
				<path d="M18.1,62.7c0,9.5,0,19,0,28.5c-2.6,0-5.2,0.1-7.8,0.1c0-21.4,0-42.8,0-64.2c4.5,0,9-0.1,13.5-0.2
					c7.7-0.2,14.9,1.2,14.9,13.6c0,2,0,4,0,6c0,7.5-3,11-7.2,12.6c4.2,1.3,7.2,4.5,7.2,12.2c0,0.9,0,1.7,0,2.6
					c0,11.6,0.8,13.8,2.1,16.6c-2.8,0.1-5.6,0.3-8.4,0.4c-0.6-1.9-1.5-5.1-1.5-12.9c0-1.8,0-3.6,0-5.4c0-7.8-2.1-10.1-9.4-9.9
					C20.3,62.7,19.2,62.7,18.1,62.7z M23,55.9c5.9-0.2,7.8-2,7.8-7.9c0-2.3,0-4.6,0-6.9c0-5.8-1.9-7.5-7.8-7.4c-1.7,0-3.3,0.1-5,0.1
					c0,7.4,0,14.7,0,22.1C19.7,55.9,21.4,55.9,23,55.9z"/>
			</g>
			<g>
				<path d="M95.6,80.1c4.6-0.5,6.6-3.2,6.6-8.4c0-3.9,0-7.7,0-11.6c2.4-0.2,4.9-0.5,7.3-0.7c0,3.5,0,7,0,10.5
					c0,10.9-5.2,16.1-14.2,17c-8.9,0.9-14.1-3.3-14.1-14.2c0-11.7,0-23.4,0-35c0-10.9,5.2-16.1,14.1-17c9-0.9,14.2,3.2,14.2,14.2
					c0,2.9,0,5.7,0,8.6c-2.4,0.2-4.9,0.5-7.3,0.7c0-3.2,0-6.4,0-9.6c0-5.1-2-7.5-6.6-7C90.9,28.1,89,30.9,89,36c0,12.3,0,24.7,0,37
					C89,78.2,90.9,80.6,95.6,80.1z"/>
			</g>
			<g>
				<path d="M125,51.9c1.5-3.9,3.9-9.5,7.3-17.2c2.7-5.8,5.3-11.6,8-17.3c2.5-0.2,5-0.4,7.5-0.7c-4.1,9.2-8.3,18.3-12.4,27.5
					c4.3,12.2,8.6,24.4,12.8,36.6c-2.7,0.2-5.3,0.5-8,0.7c-3.3-9.5-6.5-19.1-9.8-28.6c-1.8,3.8-3.7,7.7-5.5,11.5
					c0,6.2,0,12.3,0,18.5c-2.6,0.3-5.2,0.5-7.8,0.8c0-21.4,0-42.8,0-64.2c2.6-0.3,5.2-0.5,7.8-0.8C125,29.9,125,40.9,125,51.9z"/>
			</g>
			<g>
				<path d="M161.4,73.1c5.1-0.4,10.1-0.7,15.2-0.9c0,2.3,0,4.5,0,6.8c-7.7,0.4-15.3,0.9-23,1.5c0-21.4,0-42.8,0-64.2
					c7.5-0.6,15-1.1,22.6-1.5c0,2.3,0,4.5,0,6.8c-4.9,0.3-9.8,0.6-14.8,0.9c0,6.8,0,13.7,0,20.5c4.4-0.3,8.7-0.6,13.1-0.8
					c0,2.3,0,4.5,0,6.8c-4.4,0.2-8.7,0.5-13.1,0.8C161.4,57.5,161.4,65.3,161.4,73.1z"/>
			</g>
			<g>
				<path d="M206.4,20.7c-3.3,0-6.5,0-9.8,0.1c0,19.1,0,38.3,0,57.4c-2.6,0.1-5.2,0.1-7.8,0.2c0-19.1,0-38.3,0-57.4
					c-3.3,0.1-6.5,0.2-9.8,0.4c0-2.3,0-4.5,0-6.8c9.1-0.4,18.3-0.7,27.4-0.7C206.4,16.2,206.4,18.4,206.4,20.7z"/>
			</g>
			<g>
				<path d="M74.4,82.1c-9.6,0.9-19.2,1.6-28.8,2.2c0,2.3,0,4.6,0,6.9c9.6-0.6,19.2-1.3,28.8-2.2C74.4,86.7,74.4,84.4,74.4,82.1z"/>
			</g>
		</g>
		<g>
			<g>
				<path class="st1" d="M68.9,13.6c-2.1-4.3-4.5-7.3-4.6-7.4c-0.3-0.3-0.7-0.5-1.1-0.4c-0.2,0-3.9,1-8.1,3.3
					c-5.7,3.1-9.4,7.2-10.9,11.7c-2.4,7.6-4.2,22.5-3.8,33.2c0,0.5,0.3,0.9,0.8,1l12.4,4c0.2,0,0.3,0.1,0.5,0c0.3,0,0.6-0.2,0.7-0.4
					c6.5-8.5,13.9-21.6,16.3-29.2C72.4,24.9,71.7,19.4,68.9,13.6z"/>
			</g>
			<g>
				<path class="st2" d="M68.9,13.6c-2.1-4.3-4.5-7.3-4.6-7.4c-0.3-0.3-0.7-0.5-1.1-0.4c0,0-0.3,0.1-0.7,0.2c0.7,1,2.1,3.4,3.3,6.6
					c2.1,5.6,2.5,11,1.1,15.6c-2.4,7.6-9.3,20.8-15.3,29.5c-0.2,0.2-0.4,0.4-0.7,0.4c-0.1,0-0.1,0-0.2,0l2.7,0.9
					c0.2,0,0.3,0.1,0.5,0c0.3,0,0.6-0.2,0.7-0.4c6.5-8.5,13.9-21.6,16.3-29.2C72.4,24.9,71.7,19.4,68.9,13.6z"/>
			</g>
			<g>
				<path class="st3" d="M63.1,5.8c-0.2,0-3.9,1-8.1,3.3c-3.5,1.9-6.2,4.2-8.2,6.7l24.8,7.6c-0.2-3.1-1.1-6.4-2.7-9.8
					c-2.1-4.3-4.5-7.3-4.6-7.5C64,5.8,63.5,5.7,63.1,5.8z"/>
			</g>
			<g>
				<path class="st4" d="M62.4,6c0.7,1,2.1,3.4,3.3,6.6c1.3,3.3,1.9,6.6,1.9,9.6l4,1.2c-0.3-5.8-3.8-13-7.4-17.3
					c-0.3-0.3-0.7-0.5-1.1-0.4c0,0,0,0,0,0C63,5.8,62.8,5.9,62.4,6z"/>
			</g>
			<g>
				<circle class="st5" cx="56.6" cy="28" r="4.2"/>
			</g>
			<g>
				<path class="st6" d="M52.4,48.7c-0.4-0.8-1.1-1.4-2-1.7c-0.9-0.3-1.8-0.2-2.6,0.2c-0.8,0.4-1.4,1.1-1.7,2c0,0,0,0.1,0,0.2
					l-2,11.5l0,0c-0.1,0.9,0.4,1.7,1.2,1.9c0.2,0.1,0.5,0.1,0.7,0.1c0.6-0.1,1.1-0.4,1.3-1l5.1-10.5c0,0,0-0.1,0.1-0.1
					C52.9,50.5,52.8,49.5,52.4,48.7z"/>
			</g>
			<g>
				<path class="st7" d="M78.9,21.1c-1.8-0.3-3.5,0-5,1c-1.5,1-2.5,2.5-2.8,4.3l-0.6,3c-0.7,3.6,1.6,7.2,5.3,7.9
					c0.7,0.1,1.4,0.2,2.1,0.1c2.8-0.3,5.2-2.4,5.8-5.4l0.6-3C84.9,25.4,82.5,21.9,78.9,21.1z"/>
			</g>
			<g>
				<path class="st8" d="M88,17.6c-0.3-0.3-0.7-0.3-1.1-0.2l-4.1,1.4c-0.1,0-0.1,0-0.2,0l-4.3-0.8c-3-0.6-6,1.4-6.6,4.4l-1,5.1
					c-0.1,0.6,0.3,1.2,0.9,1.3l3.4,0.7c0.1,0,0.2,0,0.3,0c0.2,0,0.3-0.1,0.5-0.2c0.2-0.2,0.4-0.4,0.5-0.7l0-0.2
					c0.1-0.7,0.9-1.2,1.6-1.1l2.1,0.4c3.5,0.7,6.8-1.6,7.5-5l0.8-4C88.4,18.3,88.3,17.9,88,17.6z"/>
			</g>
			<g>
				<path class="st9" d="M74,37.2c-2.8-1.6-6.3-0.6-7.8,2.2L59.6,51c-0.2,0.3-0.2,0.6-0.1,0.9s0.3,0.5,0.6,0.7l8.5,3.8
					c0.2,0.1,0.4,0.1,0.6,0.1c0.3,0,0.6-0.2,0.8-0.5l6.2-10.8c0.6-1.1,0.9-2.3,0.7-3.5C76.7,39.7,75.6,38.1,74,37.2z"/>
			</g>
			<g>
				<g>
					<path class="st10" d="M74,37.2c-0.3-0.2-0.6-0.3-0.9-0.4c0.8,0.9,1.4,2,1.5,3.3c0.1,1.2-0.1,2.4-0.7,3.5l-6.2,10.8
						C67.6,54.8,67.3,55,67,55c-0.2,0-0.4,0-0.6-0.1l-6.9-3.1c0,0,0,0.1,0,0.1c0.1,0.3,0.3,0.5,0.6,0.7l8.5,3.8
						c0.2,0.1,0.4,0.1,0.6,0.1c0.3,0,0.6-0.2,0.8-0.5l6.2-10.8c0.6-1.1,0.9-2.3,0.7-3.5C76.7,39.7,75.6,38.1,74,37.2z"/>
				</g>
				<g>
					<path class="st10" d="M72.8,39.9c-0.6-0.6-1.5-1-2.4-0.9l-17.7,0.2c0,0,0,0,0,0c-1.9,0-3.3,1.6-3.3,3.4c0,1.9,1.6,3.3,3.4,3.3
						l17.7-0.2c0,0,0,0,0,0c0.1,0,0.2,0,0.3,0c0.8-0.1,1.5-0.4,2-1c0.6-0.7,1-1.5,0.9-2.4C73.8,41.4,73.5,40.5,72.8,39.9z"/>
				</g>
			</g>
			<g>
				<g>
					<path class="st11" d="M47.5,80.5l-10.8,1.3c-0.6,0.1-1.1-0.4-1.2-1c-0.1-0.6,0.4-1.1,1-1.2l10.8-1.3c0.6-0.1,1.1,0.4,1.2,1
						C48.5,79.8,48.1,80.4,47.5,80.5z"/>
				</g>
				<g>
					<path class="st11" d="M46.7,74.2l-7.6,0.9c-0.6,0.1-1.1-0.4-1.2-1c-0.1-0.6,0.4-1.1,1-1.2l7.6-0.9c0.6-0.1,1.1,0.4,1.2,1
						C47.8,73.6,47.3,74.1,46.7,74.2z"/>
				</g>
				<g>
					<path class="st11" d="M46,68l-3.2,0.4c-0.6,0.1-1.1-0.4-1.2-1c-0.1-0.6,0.4-1.1,1-1.2l3.2-0.4c0.6-0.1,1.1,0.4,1.2,1
						C47,67.4,46.6,67.9,46,68z"/>
				</g>
			</g>
			<g>
				<path class="st7" d="M55.7,39.5c-0.2-0.2-0.5-0.3-0.8-0.3l-2.2,0c0,0,0,0,0,0c-1.9,0-3.3,1.6-3.3,3.4c0,0.9,0.4,1.7,1,2.4
					c0.6,0.6,1.5,1,2.4,0.9l2,0c0,0,0.1,0,0.1,0c0.5-0.1,1-0.5,1-1.1l0.1-4.6C56,39.9,55.9,39.7,55.7,39.5z"/>
			</g>
			<g>
				<path class="st0" d="M68.2,58.4c-0.1-0.3-0.3-0.5-0.5-0.7l-8.1-4.6c-0.4-0.2-0.8-0.2-1.1,0c-0.2,0.1-0.3,0.3-0.4,0.5L48.9,76
					c-0.2,0.5,0,1.2,0.6,1.4l5.4,2.4c0.2,0.1,0.4,0.1,0.6,0.1c0.3,0,0.6-0.2,0.8-0.5l11.9-20.1C68.2,59,68.3,58.7,68.2,58.4z"/>
			</g>
			<g>
				<path class="st11" d="M77.7,58.1L61,50.5c-0.5-0.2-1.1,0-1.4,0.5l-1.5,2.6c0,0.1-0.1,0.1-0.1,0.2l-0.3,0.6
					c-1.1,2.6,0.1,5.6,2.7,6.8l10.8,5l-1.7,11.1c-0.1,0.6,0.3,1.1,0.9,1.2l5.8,1c0.1,0,0.2,0,0.3,0c0.2,0,0.4-0.1,0.5-0.2
					c0.2-0.2,0.4-0.4,0.4-0.7L80,62.4C80.3,60.6,79.3,58.8,77.7,58.1z"/>
			</g>
		</g>
		<g>
			<g>
				<path class="st12" d="M213.1,39.4l2.6-6c0.1-0.3-0.1-0.7-0.4-0.7l-6.3-0.4l-2.9-0.1c-0.5,0-1,0.4-1,1c0,0.5,0.4,1,1,1v11.4
					l9.3,0.5c0.3,0,0.6-0.4,0.4-0.7L213.1,39.4z"/>
			</g>
			<g>
				<path class="st13" d="M206.9,49.4l-18.1,0.5V36.5l18.1-0.5v-1h1v13.4C207.9,49,207.4,49.4,206.9,49.4z"/>
			</g>
			<g>
				<path class="st14" d="M205,33.2L205,33.2c0,0.5,0.4,1,1,1h1c0.5,0,1,0.4,1,1l0,0c0,0.5-0.4,1-1,1l-1.9,0.1V33.2L205,33.2z"/>
			</g>
			<g>
				<polygon class="st12" points="188.8,36.5 190.2,36.5 190.2,49.9 188.8,49.9 				"/>
			</g>
		</g>
		<g>
			<g>
				<path class="st15" d="M191.7,39.3c0.6,0,0.9,0,1.5,0c0.9,0,1.8,0.2,1.9,1.7c0,1.6,0.1,2.5,0.1,4.1c0,1.5-0.9,1.8-1.8,1.9
					c-0.6,0-0.9,0-1.5,0C191.8,43.9,191.7,42.3,191.7,39.3z M192.6,40.1c0.1,2.4,0.1,3.6,0.1,6.1c0.2,0,0.3,0,0.5,0
					c0.7,0,1-0.3,0.9-1c0-1.7-0.1-2.5-0.1-4.1c0-0.7-0.3-0.9-1-0.9C192.9,40.1,192.8,40.1,192.6,40.1z"/>
				<path class="st15" d="M198.8,45.8c0.7,0,1.1-0.1,1.8-0.1c0,0.3,0,0.5,0,0.8c-1.1,0.1-1.7,0.1-2.8,0.1c-0.1-3.1-0.1-4.6-0.2-7.7
					c1.1-0.1,1.6-0.1,2.7-0.1c0,0.3,0,0.5,0,0.8c-0.7,0-1.1,0.1-1.8,0.1c0,1,0,1.5,0.1,2.5c0.6,0,0.9-0.1,1.6-0.1c0,0.3,0,0.5,0,0.8
					c-0.6,0-0.9,0.1-1.6,0.1C198.8,44.2,198.8,44.7,198.8,45.8z"/>
				<path class="st15" d="M204.2,42.7c0.1,0.6,0.2,1.4,0.4,2.4c0.1-1,0.2-1.7,0.3-2.4c0.2-1.6,0.4-2.4,0.6-4c0.3,0,0.5,0,0.9,0
					c-0.5,3.1-0.7,4.6-1.2,7.7c-0.5,0-0.7,0-1.1,0c-0.6-3.1-0.9-4.6-1.5-7.6c0.4,0,0.6,0,0.9,0C203.8,40.3,203.9,41.1,204.2,42.7z"
					/>
			</g>
		</g>
	</g>
</g>
</svg>
