<?xml version="1.0" encoding="utf-8"?>
<!-- Generator: Adobe Illustrator 23.0.3, SVG Export Plug-In . SVG Version: 6.00 Build 0)  -->
<svg version="1.1" id="Calque_1" xmlns="http://www.w3.org/2000/svg" xmlns:xlink="http://www.w3.org/1999/xlink" x="0px" y="0px"
	 viewBox="0 0 132.2 256" style="enable-background:new 0 0 132.2 256;" xml:space="preserve">
<style type="text/css">
	.st0{opacity:3.000000e-02;}
	.st1{fill:#FFFFFF;}
</style>
<g class="st0">
	<g id="Control_Path-136_1_" transform="translate(31.402 262.323)">
		<path id="Tracé_138_1_" class="st1" d="M34.2,36.5v-85.9l0.1-0.1l66.4-42.9v85.9l-0.1,0.1L34.2,36.5z M34.7-49.1v84.5l65.4-42.2
			v-84.5L34.7-49.1z"/>
	</g>
	<g>
		<g id="Control_Path-137_1_" transform="translate(0 242.223)">
			<path id="Tracé_139_1_" class="st1" d="M-0.7-71.7l0.4-0.3l66.1-42.7l0.1,0.1l66.4,42.9l-0.4,0.3l-66,42.6l-0.1-0.1L-0.7-71.7z
				 M65.9-114L0.4-71.7l65.4,42.2l65.4-42.2L65.9-114z"/>
		</g>
		<g id="Control_Path-138_1_" transform="translate(0.132 262.323)">
			<path id="Tracé_140_1_" class="st1" d="M-0.6-6.5v-85.9l0.4,0.3L66-49.4v85.9l-0.4-0.3L-0.6-6.5z M0-91.3v84.5l65.4,42.2v-84.5
				L0-91.3z"/>
		</g>
	</g>
</g>
<g class="st0">
	<g id="Control_Path-136_2_" transform="translate(31.402 262.323)">
		<path id="Tracé_138_2_" class="st1" d="M-31.8-91.3v-85.9l0.1-0.1l66.4-42.9v85.9l-0.1,0.1L-31.8-91.3z M-31.3-176.9v84.5
			l65.4-42.2v-84.5L-31.3-176.9z"/>
	</g>
	<g>
		<g id="Control_Path-137_2_" transform="translate(0 242.223)">
			<path id="Tracé_139_2_" class="st1" d="M-66.7-199.6l0.4-0.3l66.1-42.7l0.1,0.1l66.4,42.9l-0.4,0.3l-66.1,42.7l-0.1-0.1
				L-66.7-199.6z M-0.1-241.8l-65.4,42.2l65.4,42.2l65.4-42.2L-0.1-241.8z"/>
		</g>
		<g id="Control_Path-138_2_" transform="translate(0.132 262.323)">
			<path id="Tracé_140_2_" class="st1" d="M-66.6-134.3v-85.9l0.4,0.3L0-177.2v85.9l-0.4-0.3L-66.6-134.3z M-66-219.1v84.5
				l65.4,42.2v-84.5L-66-219.1z"/>
		</g>
	</g>
</g>
<g class="st0">
	<g id="Control_Path-136_3_" transform="translate(31.402 262.323)">
		<path id="Tracé_138_3_" class="st1" d="M100.2-91.2v-85.9l0.1-0.1l66.4-42.9v85.9l-0.1,0.1L100.2-91.2z M100.8-176.8v84.5
			l65.4-42.2V-219L100.8-176.8z"/>
	</g>
	<g>
		<g id="Control_Path-137_3_" transform="translate(0 242.223)">
			<path id="Tracé_139_3_" class="st1" d="M65.3-199.5l0.4-0.3l66.1-42.7l0.1,0.1l66.4,42.9l-0.4,0.3l-66.1,42.7l-0.1-0.1
				L65.3-199.5z M131.9-241.7l-65.4,42.2l65.4,42.2l65.4-42.2L131.9-241.7z"/>
		</g>
		<g id="Control_Path-138_3_" transform="translate(0.132 262.323)">
			<path id="Tracé_140_3_" class="st1" d="M65.5-134.2v-85.9l0.4,0.3l66.1,42.7v85.9l-0.4-0.3L65.5-134.2z M66-219v84.5l65.4,42.2
				v-84.5L66-219z"/>
		</g>
	</g>
</g>
<g class="st0">
	<g id="Control_Path-136_4_" transform="translate(31.402 262.323)">
		<path id="Tracé_138_4_" class="st1" d="M34.1-219v-86l0.1-0.1l66.4-42.9v85.9l-0.1,0.1L34.1-219z M34.7-304.6v84.5l65.4-42.2
			v-84.5L34.7-304.6z"/>
	</g>
	<g>
		<g id="Control_Path-137_4_" transform="translate(0 242.223)">
			<path id="Tracé_139_4_" class="st1" d="M-0.8-327.3l0.4-0.3l66.1-42.7l0.1,0.1l66.4,42.9l-0.4,0.3l-66.1,42.7l-0.1-0.1
				L-0.8-327.3z M65.8-369.5L0.4-327.3L65.8-285l65.4-42.2L65.8-369.5z"/>
		</g>
		<g id="Control_Path-138_4_" transform="translate(0.132 262.323)">
			<path id="Tracé_140_4_" class="st1" d="M-0.6-262v-85.9l0.4,0.3L66-305v85.9l-0.4-0.3L-0.6-262z M-0.1-346.9v84.5l65.4,42.2
				v-84.5L-0.1-346.9z"/>
		</g>
	</g>
</g>
</svg>
